# xmcd
#
# Track frame offsets:
#	150
#	10815
#	22475
#	33491
#	43460
#	53922
#	63205
#	73341
#	86737
#	99739
#	109100
#	118111
#	128116
#	137611
#	148739
#	158816
#
# Disc length: 2320 seconds
#
# Revision: 1
# Processed by: cddbd v1.5.1PL2 Copyright (c) Steve Scherf et al.
# Submitted via: audiograbber 1.83.01
#
DISCID=f2090e10
DTITLE=Jim Reeves - Legendary [Disc 3]
DYEAR=1999
DGENRE=Country
TTITLE0=He'll Have To Go
TTITLE1=I Missed Me
TTITLE2=Angels Don't Lie
TTITLE3=When Two Worlds Collide
TTITLE4=I'm Getting Better
TTITLE5=Overnight
TTITLE6=Partners
TTITLE7=It Is No Secret
TTITLE8=Distant Drums
TTITLE9=I'd Like To Be
TTITLE10=Why Do I Love You
TTITLE11=Blue Boy
TTITLE12=There's A Heartache Following Me
TTITLE13=Then I'll Stop Loving You
TTITLE14=I Won't Come In While He's There
TTITLE15=The Jim Reeves Medley: Four Walls/I Missed Me/He'll Have To Go/Oh How/
TTITLE15=I Miss You Tonight
EXTD=
EXTT0=
EXTT1=
EXTT2=
EXTT3=
EXTT4=
EXTT5=
EXTT6=
EXTT7=
EXTT8=
EXTT9=
EXTT10=
EXTT11=
EXTT12=
EXTT13=
EXTT14=
EXTT15=
PLAYORDER=
